# xmcd
#
# Track frame offsets:
#	150
#	2995
#	29035
#	49299
#	65577
#	87703
#	109772
#	129690
#	147974
#	164242
#	191197
#
# Disc length: 2751 seconds
#
# Revision: 1
# Processed by: cddbd v1.5.2PL0 Copyright (c) Steve Scherf et al.
# Submitted via: audiograbber 1.83.01
#
DISCID=b20abd0b
DTITLE=Jamey Johnson - That Lonesome Song
DYEAR=2008
DGENRE=Country
TTITLE0=Released
TTITLE1=High Cost Of Living
TTITLE2=Angel
TTITLE3=The Door Is Always Open
TTITLE4=Mary Go Round
TTITLE5=In Color
TTITLE6=Leave You Alone
TTITLE7=That Lonesome Song
TTITLE8=Dreaming My Dreams
TTITLE9=Next Ex Thing
TTITLE10=Women
EXTD=
EXTT0=
EXTT1=
EXTT2=
EXTT3=
EXTT4=
EXTT5=
EXTT6=
EXTT7=
EXTT8=
EXTT9=
EXTT10=
PLAYORDER=
